<svg xmlns="http://www.w3.org/2000/svg" width="900" height="520">
<rect width="100%" height="100%" fill="white"/>
<text x="450.0" y="35" text-anchor="middle" font-size="22" font-family="Arial">Ingredient similarity distribution</text>
<line x1="75" y1="70" x2="75" y2="435" stroke="black"/>
<line x1="75" y1="435" x2="860" y2="435" stroke="black"/>
<rect x="77.0" y="70.0" width="16.5" height="365.0" fill="#BBBBBB"/>
<rect x="94.6" y="435.0" width="16.5" height="0.0" fill="#444444"/>
<text x="75.0" y="453" font-size="10" font-family="Arial">0.0</text>
<rect x="116.2" y="428.9" width="16.5" height="6.1" fill="#BBBBBB"/>
<rect x="133.9" y="435.0" width="16.5" height="0.0" fill="#444444"/>
<rect x="155.5" y="371.8" width="16.5" height="63.2" fill="#BBBBBB"/>
<rect x="173.1" y="435.0" width="16.5" height="0.0" fill="#444444"/>
<text x="153.5" y="453" font-size="10" font-family="Arial">0.1</text>
<rect x="194.8" y="392.9" width="16.5" height="42.1" fill="#BBBBBB"/>
<rect x="212.4" y="435.0" width="16.5" height="0.0" fill="#444444"/>
<rect x="234.0" y="416.1" width="16.5" height="18.9" fill="#BBBBBB"/>
<rect x="251.6" y="435.0" width="16.5" height="0.0" fill="#444444"/>
<text x="232.0" y="453" font-size="10" font-family="Arial">0.2</text>
<rect x="273.2" y="422.4" width="16.5" height="12.6" fill="#BBBBBB"/>
<rect x="290.9" y="435.0" width="16.5" height="0.0" fill="#444444"/>
<rect x="312.5" y="428.0" width="16.5" height="7.0" fill="#BBBBBB"/>
<rect x="330.1" y="435.0" width="16.5" height="0.0" fill="#444444"/>
<text x="310.5" y="453" font-size="10" font-family="Arial">0.3</text>
<rect x="351.8" y="431.6" width="16.5" height="3.4" fill="#BBBBBB"/>
<rect x="369.4" y="435.0" width="16.5" height="0.0" fill="#444444"/>
<rect x="391.0" y="433.0" width="16.5" height="2.0" fill="#BBBBBB"/>
<rect x="408.6" y="435.0" width="16.5" height="0.0" fill="#444444"/>
<text x="389.0" y="453" font-size="10" font-family="Arial">0.4</text>
<rect x="430.2" y="433.9" width="16.5" height="1.1" fill="#BBBBBB"/>
<rect x="447.9" y="435.0" width="16.5" height="0.0" fill="#444444"/>
<rect x="469.5" y="434.4" width="16.5" height="0.6" fill="#BBBBBB"/>
<rect x="487.1" y="435.0" width="16.5" height="0.0" fill="#444444"/>
<text x="467.5" y="453" font-size="10" font-family="Arial">0.5</text>
<rect x="508.8" y="434.7" width="16.5" height="0.3" fill="#BBBBBB"/>
<rect x="526.4" y="435.0" width="16.5" height="0.0" fill="#444444"/>
<rect x="548.0" y="434.9" width="16.5" height="0.1" fill="#BBBBBB"/>
<rect x="565.6" y="435.0" width="16.5" height="0.0" fill="#444444"/>
<text x="546.0" y="453" font-size="10" font-family="Arial">0.6</text>
<rect x="587.2" y="434.9" width="16.5" height="0.1" fill="#BBBBBB"/>
<rect x="604.9" y="435.0" width="16.5" height="0.0" fill="#444444"/>
<rect x="626.5" y="435.0" width="16.5" height="0.0" fill="#BBBBBB"/>
<rect x="644.1" y="435.0" width="16.5" height="0.0" fill="#444444"/>
<text x="624.5" y="453" font-size="10" font-family="Arial">0.7</text>
<rect x="665.8" y="435.0" width="16.5" height="0.0" fill="#BBBBBB"/>
<rect x="683.4" y="435.0" width="16.5" height="0.0" fill="#444444"/>
<rect x="705.0" y="435.0" width="16.5" height="0.0" fill="#BBBBBB"/>
<rect x="722.6" y="435.0" width="16.5" height="0.0" fill="#444444"/>
<text x="703.0" y="453" font-size="10" font-family="Arial">0.8</text>
<rect x="744.2" y="435.0" width="16.5" height="0.0" fill="#BBBBBB"/>
<rect x="761.9" y="435.0" width="16.5" height="0.0" fill="#444444"/>
<rect x="783.5" y="435.0" width="16.5" height="0.0" fill="#BBBBBB"/>
<rect x="801.1" y="435.0" width="16.5" height="0.0" fill="#444444"/>
<text x="781.5" y="453" font-size="10" font-family="Arial">0.9</text>
<rect x="822.8" y="435.0" width="16.5" height="0.0" fill="#BBBBBB"/>
<rect x="840.4" y="435.0" width="16.5" height="0.0" fill="#444444"/>
<text x="467.5" y="495" text-anchor="middle" font-size="14" font-family="Arial">Similarity score</text>
<text x="20" y="252.5" transform="rotate(-90 20,252.5)" text-anchor="middle" font-size="14" font-family="Arial">Pair count</text>
<rect x="650" y="65" width="16" height="16" fill="#BBBBBB"/><text x="674" y="78" font-size="13" font-family="Arial">all salads</text>
<rect x="650" y="90" width="16" height="16" fill="#444444"/><text x="674" y="103" font-size="13" font-family="Arial">selected dataset</text>
</svg>