<svg xmlns="http://www.w3.org/2000/svg" width="900" height="600">
<rect width="100%" height="100%" fill="white"/>
<text x="50%" y="30" text-anchor="middle" font-size="22" font-family="Arial">Most common core ingredients in selected dataset</text>
<text x="180" y="66" text-anchor="end" font-size="13" font-family="Arial">cucumber</text>
<rect x="190" y="50" width="620.0" height="22" fill="#666666"/>
<text x="818.0" y="66" font-size="13" font-family="Arial">20</text>
<text x="180" y="93" text-anchor="end" font-size="13" font-family="Arial">onion</text>
<rect x="190" y="77" width="527.0" height="22" fill="#666666"/>
<text x="725.0" y="93" font-size="13" font-family="Arial">17</text>
<text x="180" y="120" text-anchor="end" font-size="13" font-family="Arial">white sugar</text>
<rect x="190" y="104" width="372.0" height="22" fill="#666666"/>
<text x="570.0" y="120" font-size="13" font-family="Arial">12</text>
<text x="180" y="147" text-anchor="end" font-size="13" font-family="Arial">tomato</text>
<rect x="190" y="131" width="310.0" height="22" fill="#666666"/>
<text x="508.0" y="147" font-size="13" font-family="Arial">10</text>
<text x="180" y="174" text-anchor="end" font-size="13" font-family="Arial">distilled white vinegar</text>
<rect x="190" y="158" width="217.0" height="22" fill="#666666"/>
<text x="415.0" y="174" font-size="13" font-family="Arial">7</text>
<text x="180" y="201" text-anchor="end" font-size="13" font-family="Arial">white vinegar</text>
<rect x="190" y="185" width="93.0" height="22" fill="#666666"/>
<text x="291.0" y="201" font-size="13" font-family="Arial">3</text>
<text x="180" y="228" text-anchor="end" font-size="13" font-family="Arial">dill</text>
<rect x="190" y="212" width="93.0" height="22" fill="#666666"/>
<text x="291.0" y="228" font-size="13" font-family="Arial">3</text>
<text x="180" y="255" text-anchor="end" font-size="13" font-family="Arial">red wine vinegar</text>
<rect x="190" y="239" width="62.0" height="22" fill="#666666"/>
<text x="260.0" y="255" font-size="13" font-family="Arial">2</text>
<text x="180" y="282" text-anchor="end" font-size="13" font-family="Arial">mint</text>
<rect x="190" y="266" width="62.0" height="22" fill="#666666"/>
<text x="260.0" y="282" font-size="13" font-family="Arial">2</text>
<text x="180" y="309" text-anchor="end" font-size="13" font-family="Arial">celery seed</text>
<rect x="190" y="293" width="62.0" height="22" fill="#666666"/>
<text x="260.0" y="309" font-size="13" font-family="Arial">2</text>
<text x="180" y="336" text-anchor="end" font-size="13" font-family="Arial">white wine vinegar</text>
<rect x="190" y="320" width="62.0" height="22" fill="#666666"/>
<text x="260.0" y="336" font-size="13" font-family="Arial">2</text>
<text x="180" y="363" text-anchor="end" font-size="13" font-family="Arial">bell pepper</text>
<rect x="190" y="347" width="62.0" height="22" fill="#666666"/>
<text x="260.0" y="363" font-size="13" font-family="Arial">2</text>
<text x="180" y="390" text-anchor="end" font-size="13" font-family="Arial">cabbage</text>
<rect x="190" y="374" width="31.0" height="22" fill="#666666"/>
<text x="229.0" y="390" font-size="13" font-family="Arial">1</text>
<text x="180" y="417" text-anchor="end" font-size="13" font-family="Arial">salt black peper</text>
<rect x="190" y="401" width="31.0" height="22" fill="#666666"/>
<text x="229.0" y="417" font-size="13" font-family="Arial">1</text>
<text x="180" y="444" text-anchor="end" font-size="13" font-family="Arial">dill weed</text>
<rect x="190" y="428" width="31.0" height="22" fill="#666666"/>
<text x="229.0" y="444" font-size="13" font-family="Arial">1</text>
<text x="180" y="471" text-anchor="end" font-size="13" font-family="Arial">white pepper</text>
<rect x="190" y="455" width="31.0" height="22" fill="#666666"/>
<text x="229.0" y="471" font-size="13" font-family="Arial">1</text>
<text x="180" y="498" text-anchor="end" font-size="13" font-family="Arial">whole kernel corn</text>
<rect x="190" y="482" width="31.0" height="22" fill="#666666"/>
<text x="229.0" y="498" font-size="13" font-family="Arial">1</text>
<text x="180" y="525" text-anchor="end" font-size="13" font-family="Arial">radish</text>
<rect x="190" y="509" width="31.0" height="22" fill="#666666"/>
<text x="229.0" y="525" font-size="13" font-family="Arial">1</text>
<text x="180" y="552" text-anchor="end" font-size="13" font-family="Arial">coriander</text>
<rect x="190" y="536" width="31.0" height="22" fill="#666666"/>
<text x="229.0" y="552" font-size="13" font-family="Arial">1</text>
<text x="180" y="579" text-anchor="end" font-size="13" font-family="Arial">lime</text>
<rect x="190" y="563" width="31.0" height="22" fill="#666666"/>
<text x="229.0" y="579" font-size="13" font-family="Arial">1</text>
</svg>